<svg width="44" height="43" viewBox="0 0 44 43" fill="none" xmlns="http://www.w3.org/2000/svg">
<path d="M42.7139 21.4243C42.7139 32.7351 33.323 41.9243 21.7139 41.9243C10.1047 41.9243 0.713867 32.7351 0.713867 21.4243C0.713867 10.1135 10.1047 0.924316 21.7139 0.924316C33.323 0.924316 42.7139 10.1135 42.7139 21.4243Z" stroke="#59003A"/>
<path d="M14.7303 24.5358L14.7303 24.536C14.7412 25.2789 14.9387 25.8918 15.2952 26.3948C15.6537 26.9007 16.194 27.3249 16.9349 27.6523C17.2426 27.7882 17.5879 27.8635 17.9643 27.9028C17.9652 27.9029 17.9661 27.903 17.967 27.9031L17.9153 28.4004C17.9484 28.4033 17.981 28.4097 18.0137 28.4161C18.0283 28.4189 18.0429 28.4218 18.0577 28.4243L14.7303 24.5358ZM14.7303 24.5358C14.7077 23.0299 14.7132 21.526 14.7188 20.0167C14.7209 19.4491 14.723 18.8808 14.7236 18.3112V18.3107C14.7236 17.7196 14.8624 17.1733 15.1723 16.6831L15.1726 16.6827C15.9018 15.5269 16.9766 14.9382 18.4429 14.9307L18.4429 14.9307C20.5054 14.92 22.5691 14.9249 24.6342 14.9299C24.7552 14.9302 24.8761 14.9305 24.9971 14.9308H24.9983C25.2655 14.9308 25.5151 14.9449 25.7408 14.9911C26.5202 15.1518 27.1313 15.4474 27.596 15.8594C28.0594 16.2702 28.4014 16.8181 28.6112 17.5222L28.6114 17.5227C28.6443 17.6327 28.6596 17.7281 28.6794 17.8514C28.689 17.9111 28.6997 17.9773 28.7139 18.0549V24.8019C28.7057 24.8521 28.6993 24.8948 28.6936 24.9333C28.6814 25.0154 28.672 25.0784 28.6536 25.1536L28.6532 25.1552C28.4814 25.8693 28.1701 26.4332 27.7304 26.8663C27.2895 27.3006 26.6959 27.6263 25.9251 27.8261L25.9244 27.8263C25.8025 27.8581 25.6946 27.873 25.5607 27.8915C25.4942 27.9007 25.4213 27.9108 25.3371 27.9243H18.1056L14.7303 24.5358ZM15.0539 18.3628L15.0539 18.3627C15.0566 16.9309 15.9236 15.7966 17.3007 15.3364L15.0539 18.3628ZM15.0539 18.3628C15.0537 18.4828 15.0535 18.6029 15.0533 18.7229C15.0501 20.6428 15.0469 22.566 15.0595 24.4885L15.0595 24.4888M15.0539 18.3628L15.0595 24.4888M15.0595 24.4888C15.0621 24.8384 15.1154 25.2147 15.2414 25.565L15.2416 25.5657M15.0595 24.4888L15.2416 25.5657M15.2416 25.5657C15.7251 26.9034 16.9678 27.6781 18.436 27.6805L15.2416 25.5657ZM24.9971 27.6753L24.9967 27.6753L24.9971 27.6753ZM24.9971 27.6753C25.3609 27.673 25.7534 27.6257 26.1189 27.5112L26.1193 27.5111M24.9971 27.6753L26.1193 27.5111M26.1193 27.5111C27.5063 27.0751 28.3783 25.9316 28.3836 24.5078L26.1193 27.5111ZM26.9651 15.7313L26.9654 15.7315C27.8976 16.3609 28.3809 17.2523 28.3836 18.3415C28.3836 18.3416 28.3836 18.3416 28.3836 18.3417L26.9651 15.7313ZM26.9651 15.7313C26.3568 15.3213 25.6772 15.1651 24.9786 15.1663L24.9784 15.1663M26.9651 15.7313L24.9784 15.1663M24.9784 15.1663C24.2567 15.1677 23.5356 15.1672 22.814 15.1667C22.4529 15.1665 22.0918 15.1663 21.7304 15.1663H21.4311M24.9784 15.1663L21.4311 15.1663M21.4311 15.1663L21.43 15.1683M21.4311 15.1663L21.43 15.1683M21.43 15.1683H21.4297H21.4234H21.417H21.4106H21.4043H21.3979H21.3915H21.3851H21.3788H21.3724H21.366H21.3596H21.3533H21.3469H21.3405H21.3341H21.3278H21.3214H21.315H21.3086H21.3023H21.2959H21.2895H21.2831H21.2768H21.2704H21.264H21.2577H21.2513H21.2449H21.2385H21.2322H21.2258H21.2194H21.213H21.2067H21.2003H21.1939H21.1875H21.1812H21.1748H21.1684H21.162H21.1557H21.1493H21.1429H21.1365H21.1302H21.1238H21.1174H21.1111H21.1047H21.0983H21.0919H21.0856H21.0792H21.0728H21.0664H21.0601H21.0537H21.0473H21.0409H21.0346H21.0282H21.0218H21.0154H21.0091H21.0027H20.9963H20.9899H20.9836H20.9772H20.9708H20.9645H20.9581H20.9517H20.9453H20.939H20.9326H20.9262H20.9198H20.9135H20.9071H20.9007H20.8943H20.888H20.8816H20.8752H20.8688H20.8625H20.8561H20.8497H20.8433H20.837H20.8306H20.8242H20.8179H20.8115H20.8051H20.7987H20.7924H20.786H20.7796H20.7732H20.7669H20.7605H20.7541H20.7477H20.7414H20.735H20.7286H20.7222H20.7159H20.7095H20.7031H20.6967H20.6904H20.684H20.6776H20.6713H20.6649H20.6585H20.6521H20.6458H20.6394H20.633H20.6266H20.6203H20.6139H20.6075H20.6011H20.5948H20.5884H20.582H20.5756H20.5693H20.5629H20.5565H20.5501H20.5438H20.5374H20.531H20.5247H20.5183H20.5119H20.5055H20.4992H20.4928H20.4864H20.48H20.4737H20.4673H20.4609H20.4545H20.4482H20.4418H20.4354H20.429H20.4227H20.4163H20.4099H20.4035H20.3972H20.3908H20.3844H20.3781H20.3717H20.3653H20.3589H20.3526H20.3462H20.3398H20.3334H20.3271H20.3207H20.3143H20.3079H20.3016H20.2952H20.2888H20.2824H20.2761H20.2697H20.2633H20.2569H20.2506H20.2442H20.2378H20.2315H20.2251H20.2187H20.2123H20.206H20.1996H20.1932H20.1868H20.1805H20.1741H20.1677H20.1613H20.155H20.1486H20.1422H20.1358H20.1295H20.1231H20.1167H20.1103H20.104H20.0976H20.0912H20.0849H20.0785H20.0721H20.0657H20.0594H20.053H20.0466H20.0402H20.0339H20.0275H20.0211H20.0147H20.0084H20.002H19.9956H19.9892H19.9829H19.9765H19.9701H19.9637H19.9574H19.951H19.9446H19.9383H19.9319H19.9255H19.9191H19.9128H19.9064H19.9H19.8936H19.8873H19.8809H19.8745H19.8681H19.8618H19.8554H19.849H19.8426H19.8363H19.8299H19.8235H19.8171H19.8108H19.8044H19.798H19.7917H19.7853H19.7789H19.7725H19.7662H19.7598H19.7534H19.747H19.7407H19.7343H19.7279H19.7215H19.7152H19.7088H19.7024H19.696H19.6897H19.6833H19.6769H19.6705H19.6642H19.6578H19.6514H19.6451H19.6387H19.6323H19.6259H19.6196H19.6132H19.6068H19.6004H19.5941H19.5877H19.5813H19.5749H19.5686H19.5622H19.5558H19.5494H19.5431H19.5367H19.5303H19.524H19.5176H19.5112H19.5048H19.4985H19.4921H19.4857H19.4793H19.473H19.4666H19.4602H19.4538H19.4475H19.4411H19.4347H19.4283H19.422H19.4156H19.4092H19.4028H19.3965H19.3901H19.3837H19.3774H19.371H19.3646H19.3582H19.3519H19.3455H19.3391H19.3327H19.3264H19.32H19.3136H19.3072H19.3009H19.2945H19.2881H19.2817H19.2754H19.269H19.2626H19.2562H19.2499H19.2435H19.2371H19.2308H19.2244H19.218H19.2116H19.2053H19.1989H19.1925H19.1861H19.1798H19.1734H19.167H19.1606H19.1543H19.1479H19.1415H19.1351H19.1288H19.1224H19.116H19.1096H19.1033H19.0969H19.0905H19.0842H19.0778H19.0714H19.065H19.0587H19.0523H19.0459H19.0395H19.0332H19.0268H19.0204H19.014H19.0077H19.0013H18.9949H18.9885H18.9822H18.9758H18.9694H18.963H18.9567H18.9503H18.9439H18.9376H18.9312H18.9248H18.9184H18.9121H18.9057H18.8993H18.8929H18.8866H18.8802H18.8738H18.8674H18.8611H18.8547H18.8483H18.8419H18.8356H18.8292H18.8228H18.8164H18.8101H18.8037H18.7973H18.791H18.7846H18.7782H18.7718H18.7655H18.7591H18.7527H18.7463H18.74H18.7336H18.7272H18.7208H18.7145H18.7081H18.7017H18.6953H18.689H18.6826H18.6762H18.6698H18.6635H18.6571H18.6507H18.6444H18.638H18.6316H18.6252H18.6189H18.6125H18.6061H18.5997H18.5934H18.587H18.5806H18.5742H18.5679H18.5615H18.5551H18.5487H18.5424H18.536H18.5296H18.5232H18.5169H18.5105H18.5041H18.4978H18.4914H18.485H18.4786H18.4723H18.4659C18.0929 15.1683 17.6961 15.2042 17.3008 15.3364L21.43 15.1683Z" fill="#59003A" stroke="#59003A"/>
<path d="M24.7128 21.5166L24.7129 21.425C24.7147 19.4407 23.2951 17.9215 21.7123 17.9243C20.1286 17.9272 18.7231 19.4278 18.7139 21.4172L24.7128 21.5166ZM24.7128 21.5166C24.6682 23.4588 23.2679 24.9288 21.7111 24.9243L24.7128 21.5166ZM18.9221 21.4343L18.9221 21.434C18.9128 19.7798 20.1021 18.3168 21.7042 18.3037L18.9221 21.4343ZM18.9221 21.4343C18.9324 23.0921 20.1248 24.5569 21.7245 24.5437M18.9221 21.4343L21.7245 24.5437M21.7245 24.5437C23.3264 24.5307 24.5172 23.068 24.5067 21.4131M21.7245 24.5437L24.5067 21.4131M24.5067 21.4131C24.5067 21.4131 24.5067 21.4131 24.5067 21.4131L24.0067 21.4163L24.5067 21.4131ZM24.5067 21.4131C24.4964 19.7553 23.304 18.2906 21.7043 18.3037L24.5067 21.4131ZM21.7109 24.9243C20.1195 24.9184 18.7058 23.3959 18.7139 21.4174L21.7109 24.9243Z" fill="#59003A" stroke="#59003A"/>
<path d="M25.7139 17.4248H25.7139C25.7133 17.6952 25.9444 17.926 26.2176 17.9243L25.7139 17.4248ZM25.7139 17.4248V17.4238M25.7139 17.4248V17.4238M25.7139 17.4238C25.7139 17.1549 25.9371 16.9272 26.2122 16.9243L25.7139 17.4238ZM26.2123 16.9243C26.4828 16.9215 26.7139 17.1493 26.7139 17.4238C26.7139 17.6934 26.4858 17.9226 26.2176 17.9243L26.2123 16.9243Z" fill="#59003A" stroke="#59003A"/>
</svg>
