<svg width="44" height="43" viewBox="0 0 44 43" fill="none" xmlns="http://www.w3.org/2000/svg">
<path d="M42.7139 21.4243C42.7139 32.7351 33.323 41.9243 21.7139 41.9243C10.1047 41.9243 0.713867 32.7351 0.713867 21.4243C0.713867 10.1135 10.1047 0.924316 21.7139 0.924316C33.323 0.924316 42.7139 10.1135 42.7139 21.4243Z" stroke="#59003A"/>
<path d="M24.7083 27.4221C25.2282 27.4201 25.7481 27.4198 26.2674 27.42C26.4276 27.4201 26.5878 27.4202 26.7479 27.4203C26.7544 27.4203 26.7609 27.4203 26.7674 27.4203V27.62H26.2674C26.1386 27.62 26.0114 27.6203 25.8855 27.6207C25.4817 27.6218 25.0909 27.6229 24.7025 27.6121L24.7083 27.4221ZM24.7083 27.4221L24.7164 27.1126L24.7078 27.4221L24.7083 27.4221ZM16.6073 27.4243L16.6073 27.4243C16.6073 27.4243 16.6073 27.4243 16.6073 27.4243Z" fill="#59003A" stroke="#59003A"/>
</svg>
