<svg width="97" height="97" viewBox="0 0 97 97" fill="none" xmlns="http://www.w3.org/2000/svg">
<circle cx="48.5" cy="48.5" r="48.5" fill="#59003A" fill-opacity="0.2"/>
<path d="M39.35 61V56.92C41.594 55.084 43.464 53.5087 44.96 52.194C46.4787 50.8567 47.68 49.678 48.564 48.658C49.4707 47.638 50.1167 46.7087 50.502 45.87C50.8873 45.0313 51.08 44.1927 51.08 43.354C51.08 42.3567 50.808 41.586 50.264 41.042C49.7427 40.4753 49.006 40.192 48.054 40.192C47.0567 40.192 46.2293 40.498 45.572 41.11C44.9147 41.722 44.5067 42.5607 44.348 43.626H39.112C39.3613 41.314 40.302 39.5007 41.934 38.186C43.566 36.8487 45.674 36.18 48.258 36.18C50.8873 36.18 52.9387 36.86 54.412 38.22C55.8853 39.5573 56.622 41.4273 56.622 43.83C56.622 44.9633 56.4293 46.0513 56.044 47.094C55.6813 48.1367 55.0693 49.2133 54.208 50.324C53.3467 51.4347 52.168 52.6587 50.672 53.996C49.1987 55.3107 47.3513 56.818 45.13 58.518L43.872 56.988H57.098V61H39.35Z" fill="#59003A"/>
</svg>
