<svg width="76" height="76" viewBox="0 0 76 76" fill="none" xmlns="http://www.w3.org/2000/svg">
<circle cx="38" cy="38" r="38" fill="#89DFFF"/>
<path d="M19 38.7613C19.0998 38.0477 19.1731 37.329 19.3023 36.6205C20.0516 32.5292 22.0021 29.1037 25.1018 26.3439C28.0275 23.7388 31.4612 22.2495 35.3581 21.879C39.0035 21.5318 42.4555 22.2292 45.6815 23.9771C45.7823 24.032 45.8932 24.2081 45.88 24.313C45.709 25.672 45.5166 27.029 45.3272 28.386C45.3201 28.4348 45.2957 28.4806 45.2702 28.5539C41.6849 26.0833 37.7758 25.3045 33.5644 26.3775C30.2121 27.2316 27.5603 29.1525 25.5762 31.9866C21.7588 37.44 22.4663 45.0311 27.2294 49.7587C32.1015 54.5941 39.6642 55.2202 45.2183 51.2073C48.3354 48.9545 50.2401 45.9035 50.8549 42.0993C51.4678 38.3134 50.5964 34.8482 48.3843 31.6659C49.1203 31.5641 49.8095 31.4684 50.4986 31.3728C51.1776 31.2791 51.8577 31.1977 52.5336 31.0847C52.7891 31.0419 52.9164 31.1101 53.0375 31.3402C54.5706 34.2588 55.2995 37.3596 55.1458 40.6558C54.7671 48.7783 49.1895 55.5602 41.3103 57.4577C40.4022 57.6766 39.4596 57.7529 38.5332 57.8975C38.4222 57.9148 38.3123 57.9423 38.2023 57.9647H35.9923C35.8691 57.9423 35.7459 57.9138 35.6217 57.8975C34.9193 57.7998 34.2088 57.7428 33.5145 57.6033C30.0004 56.8988 26.9597 55.2823 24.4096 52.7678C21.6936 50.0895 19.9732 46.8716 19.2993 43.1102C19.172 42.4027 19.0987 41.686 19 40.9724C19 40.2354 19 39.4994 19 38.7623V38.7613Z" fill="#0040AE"/>
<path d="M44.4181 30.8333C43.4439 31.8085 42.486 32.7674 41.5036 33.7498C39.6214 32.4335 37.5172 32.006 35.2461 32.5608C33.4371 33.0026 31.9915 34.0165 30.9165 35.5333C28.7788 38.5506 29.1524 42.6501 31.7869 45.2531C34.4133 47.8469 38.5331 48.1401 41.523 45.9932C44.4884 43.8645 45.9003 39.2042 43.2332 35.4437C44.1972 34.4838 45.1572 33.5269 46.1161 32.572C49.051 35.7461 50.1779 42.2551 46.1446 47.2331C42.0086 52.3373 34.449 53.0183 29.4924 48.7377C24.4828 44.4112 24.0085 36.8648 28.4581 32.0212C33.0299 27.0453 40.2281 27.2367 44.4181 30.8333Z" fill="#0040AE"/>
<path d="M39.9187 35.4752C38.7022 36.6897 37.5101 37.8807 36.3364 39.0525C36.8586 39.5726 37.3768 40.0908 37.9092 40.6222C39.0656 39.4454 40.2526 38.2381 41.4498 37.0195C42.6327 38.5944 42.8729 41.6605 40.6822 43.7189C38.6676 45.6124 35.5332 45.6175 33.4962 43.726C31.4582 41.8326 31.2515 38.6839 33.0239 36.5268C34.6985 34.4888 37.843 33.9839 39.9187 35.4752Z" fill="#0040AE"/>
<path d="M53.3318 19C53.7125 20.0282 54.0912 21.0329 54.4536 22.0438C54.5371 22.2779 54.6613 22.4143 54.9026 22.4998C55.9165 22.8602 56.9223 23.244 57.9901 23.64C57.8904 23.752 57.8171 23.8446 57.7346 23.9271C56.2107 25.453 54.6868 26.98 53.1557 28.4999C53.0376 28.6169 52.8717 28.734 52.7139 28.7574C51.0332 29.0017 49.3494 29.2267 47.6667 29.4558C47.6301 29.4609 47.5914 29.4558 47.4998 29.4558C47.5537 29.0262 47.6036 28.6068 47.6596 28.1874C47.8367 26.8813 48.0128 25.5742 48.2001 24.2691C48.2185 24.1408 48.2795 23.9943 48.3691 23.9037C49.9796 22.284 51.5961 20.6715 53.2127 19.058C53.229 19.0417 53.2565 19.0356 53.3308 19H53.3318Z" fill="#0040AE"/>
</svg>
