<svg width="44" height="43" viewBox="0 0 44 43" fill="none" xmlns="http://www.w3.org/2000/svg">
<path d="M42.7139 21.4243C42.7139 32.7351 33.323 41.9243 21.7139 41.9243C10.1047 41.9243 0.713867 32.7351 0.713867 21.4243C0.713867 10.1135 10.1047 0.924316 21.7139 0.924316C33.323 0.924316 42.7139 10.1135 42.7139 21.4243Z" stroke="#59003A"/>
<path d="M24.6583 14.9387V16.3429H24.6555H24.6527H24.6498H24.647H24.6441H24.6413H24.6384H24.6356H24.6327H24.6299H24.627H24.6242H24.6213H24.6185H24.6156H24.6128H24.61H24.6071H24.6043H24.6014H24.5986H24.5957H24.5929H24.59H24.5872H24.5843H24.5815H24.5786H24.5758H24.5729H24.5701H24.5673H24.5644H24.5616H24.5587H24.5559H24.553H24.5502H24.5474H24.5445H24.5417H24.5388H24.536H24.5331H24.5303H24.5275H24.5246H24.5218H24.5189H24.5161H24.5132H24.5104H24.5076H24.5047H24.5019H24.499H24.4962H24.4934H24.4905H24.4877H24.4848H24.482H24.4792H24.4763H24.4735H24.4706H24.4678H24.465H24.4621H24.4593H24.4565H24.4536H24.4508H24.4479H24.4451H24.4423H24.4394H24.4366H24.4338H24.4309H24.4281H24.4253H24.4224H24.4196H24.4168H24.4139H24.4111H24.4082H24.4054H24.4026H24.3997H24.3969H24.3941H24.3912H24.3884H24.3856H24.3827H24.3799H24.3771H24.3742H24.3714H24.3686H24.3657H24.3629H24.3601H24.3572H24.3544H24.3516H24.3488H24.3459H24.3431H24.3403H24.3374H24.3346H24.3318H24.3289H24.3261H24.3233H24.3204H24.3176H24.3148H24.312H24.3091H24.3063H24.3035H24.3006H24.2978H24.295H24.2921H24.2893H24.2865H24.2837H24.2808H24.278H24.2752H24.2724H24.2695H24.2667H24.2639H24.261H24.2582H24.2554H24.2526H24.2497H24.2469H24.2441H24.2413H24.2384H24.2356H24.2328H24.2299H24.2271H24.2243H24.2215H24.2186H24.2158H24.213H24.2102H24.2073H24.2045H24.2017H24.1989H24.196H24.1932H24.1904H24.1876H24.1847H24.1819H24.1791H24.1763H24.1735H24.1706H24.1678H24.165H24.1622H24.1593H24.1565H24.1537H24.1509H24.148H24.1452H24.1424H24.1396H24.1368H24.1339H24.1311H24.1283H24.1255H24.1226H24.1198H24.117H24.1142H24.1114H24.1085H24.1057H24.1029H24.1001H24.0972H24.0944H24.0916H24.0888H24.086H24.0831H24.0803H24.0775H24.0747H24.0719H24.069H24.0662H24.0634H24.0606H24.0578H24.0549H24.0521H24.0493H24.0465H24.0437H24.0408H24.038H24.0352H24.0324H24.0296H24.0267H24.0239H24.0211H24.0183H24.0155H24.0127H24.0098H24.007H24.0042H24.0014H23.9986H23.9957H23.9929H23.9901H23.9873H23.9845H23.9817H23.9788H23.976H23.9732H23.9704H23.9676H23.9647H23.9619H23.9591H23.9563H23.9535H23.9507H23.9478H23.945H23.9422H23.9394H23.9366H23.9338H23.9309H23.9281H23.9253H23.9225H23.9197H23.9169H23.914H23.9112H23.9084H23.9056H23.9028H23.9H23.8971H23.8943H23.8915H23.8887H23.8859H23.8831H23.8802H23.8774H23.8746H23.8718H23.869H23.8662H23.8633H23.8605H23.8577H23.8549H23.8521H23.8493H23.8465H23.8436H23.8408H23.838H23.8352H23.8324H23.8296H23.8267H23.8239H23.8211H23.8183H23.8155H23.8127H23.8098H23.807H23.8042H23.8014H23.7986H23.7958H23.793H23.7901H23.7873H23.7845H23.7817H23.7789H23.7761H23.7733H23.7704H23.7676H23.7648H23.762H23.7592H23.7564H23.7535H23.7507H23.7479H23.7451H23.7423H23.7395H23.7367H23.7338H23.731H23.7282H23.7254H23.7226H23.7198H23.717H23.7141H23.7113H23.7085H23.7057H23.7029C23.3569 16.3429 22.956 16.3777 22.6681 16.6434C22.3668 16.9215 22.3251 17.3212 22.3247 17.6525V17.653V17.6555V17.6581V17.6606V17.6631V17.6656V17.6681V17.6707V17.6732V17.6757V17.6782V17.6807V17.6833V17.6858V17.6883V17.6908V17.6933V17.6958V17.6984V17.7009V17.7034V17.7059V17.7084V17.711V17.7135V17.716V17.7185V17.721V17.7236V17.7261V17.7286V17.7311V17.7336V17.7362V17.7387V17.7412V17.7437V17.7462V17.7488V17.7513V17.7538V17.7563V17.7588V17.7614V17.7639V17.7664V17.7689V17.7714V17.774V17.7765V17.779V17.7815V17.784V17.7866V17.7891V17.7916V17.7941V17.7966V17.7992V17.8017V17.8042V17.8067V17.8093V17.8118V17.8143V17.8168V17.8193V17.8219V17.8244V17.8269V17.8294V17.832V17.8345V17.837V17.8395V17.842V17.8446V17.8471V17.8496V17.8521V17.8547V17.8572V17.8597V17.8622V17.8647V17.8673V17.8698V17.8723V17.8748V17.8774V17.8799V17.8824V17.8849V17.8875V17.89V17.8925V17.895V17.8976V17.9001V17.9026V17.9051V17.9077V17.9102V17.9127V17.9152V17.9178V17.9203V17.9228V17.9253V17.9279V17.9304V17.9329V17.9354V17.938V17.9405V17.943V17.9455V17.9481V17.9506V17.9531V17.9557V17.9582V17.9607V17.9632V17.9658V17.9683V17.9708V17.9734V17.9759V17.9784V17.9809V17.9835V17.986V17.9885V17.9911V17.9936V17.9961V17.9986V18.0012V18.0037V18.0062V18.0088V18.0113V18.0138V18.0164V18.0189V18.0214V18.0239V18.0265V18.029V18.0315V18.0341V18.0366V18.0391V18.0417V18.0442V18.0467V18.0493V18.0518V18.0543V18.0569V18.0594V18.0619V18.0645V18.067V18.0695V18.0721V18.0746V18.0771V18.0797V18.0822V18.0847V18.0873V18.0898V18.0923V18.0949V18.0974V18.1V18.1025V18.105V18.1076V18.1101V18.1126V18.1152V18.1177V18.1203V18.1228V18.1253V18.1279V18.1304V18.1329V18.1355V18.138V18.1406V18.1431V18.1456V18.1482V18.1507V18.1533V18.1558V18.1583V18.1609V18.1634V18.166V18.1685V18.171V18.1736V18.1761V18.1787V18.1812V18.1838V18.1863V18.1888V18.1914V18.1939V18.1965V18.199V18.2016V18.2041V18.2067V18.2092V18.2117V18.2143V18.2168V18.2194V18.2219V18.2245V18.227V18.2296V18.2321V18.2347V18.2372V18.2398V18.2423V18.2449V18.2474V18.25V18.2525V18.255V18.2576V18.2601V18.2627V18.2652V18.2678V18.2703V18.2729V18.2754V18.278V18.2806V18.2831V18.2857V18.2882V18.2908V18.2933V18.2959V18.2984V18.301V18.3035V18.3061V18.3086V18.3112V18.3137V18.3163V18.3189V18.3214V18.324V18.3265V18.3291V18.3316V18.3342V18.3368V18.3393V18.3419V18.3444V18.347V18.3495V18.3521V18.3547V18.3572V18.3598V18.3623V18.3649V18.3675V18.37V18.3726V18.3751V18.3777V18.3803V18.3828V18.3854V18.388V18.3905V18.3931V18.3956V18.3982V18.4008V18.4033V18.4059V18.4085V18.411V18.4136V18.4162V18.4187V18.4213V18.4239V18.4264V18.429V18.4316V18.4341V18.4367V18.4393V18.4418V18.4444V18.447V18.4496V18.4521V18.4547V18.4573V18.4598V18.4624V18.465V18.4676V18.4701V18.4727V18.4753V18.4779V18.4804V18.483V18.4856V18.4882V18.4907V18.4933V18.4959V18.4985V18.501V18.5036V18.5062V18.5088V18.5113V18.5139V18.5165V18.5191V18.5217V18.5242V18.5268V18.5294V18.532V18.5346V18.5371V18.5397V18.5423V18.5449V18.5475V18.5501V18.5526V18.5552V18.5578V18.5604V18.563V18.5656V18.5681V18.5707V18.5733V18.5759V18.5785V18.5811V18.5837V18.5863V18.5888V18.5914V18.594V18.5966V18.5992V18.6018V18.6044V18.607V18.6096V18.6122V18.6147V18.6173V18.6199V18.6225V18.6251V18.6277V18.6303V18.6329V18.6355V18.6381V18.6407V18.6433V18.6459V18.6485V18.6511V18.6537V18.6563V18.6589V18.6615V18.6641V18.6667V18.6693V18.6719V18.6745V18.6771V18.6797V18.6823V18.6849V18.6875V18.6901V18.6927V18.6953V18.6979V18.7005V18.7031V18.7057V18.7083V18.7109V18.7135V18.7162V18.7188V18.7214V18.724V18.7266V18.7292V18.7318V18.7344V18.737V18.7396V18.7422V18.7449V18.7475V18.7501V18.7527V18.7553V18.7579V18.7605V18.7632V18.7658V18.7684V18.771V18.7736V18.7762V18.7789V18.7815V18.7841V18.7867V18.7893V18.792V18.7946V18.7972V18.7998V18.8024V18.8051V18.8077V18.8103V18.8129V18.8156V18.8182V18.8208V18.8234V18.8261V18.8287V18.8313V18.8339V18.8366V18.8392V18.8418V18.8444V18.8471V18.8497V18.8523V18.855V18.8576V18.8602V18.8629V18.8655V18.8681V18.8708V18.8734V18.876V18.8787V18.8813V18.8839V18.8866V18.8892V18.8918V18.8945V18.8971V18.8998V18.9024V18.905V18.9077V18.9103V18.913V18.9156V18.9182V18.9209V18.9235V18.9262V18.9288V18.9315V18.9341V18.9368V18.9394V18.9421V18.9447V18.9473V18.95V18.9526V18.9553V18.9579V18.9606V18.9632V18.9659V19.4659H22.8247H24.6559C24.6019 19.9568 24.5484 20.4423 24.4944 20.932H22.8302H22.3302V21.432V27.9243H20.1903V21.4408V20.9408H19.6903H19.6896H18.7139V19.481H19.6693H20.147L20.1688 19.0038C20.1705 18.966 20.1725 18.9273 20.1746 18.8888C20.178 18.8222 20.1815 18.7562 20.1833 18.6968L20.1833 18.6967C20.1904 18.4582 20.1895 18.238 20.1886 18.0284C20.1868 17.6153 20.1852 17.2435 20.246 16.8547C20.3433 16.2323 20.5953 15.791 20.9657 15.4904C21.3427 15.1845 21.8909 14.9854 22.6451 14.9446L22.6452 14.9446C23.1912 14.9149 23.7293 14.9238 24.2875 14.933C24.41 14.9351 24.5335 14.9371 24.6583 14.9387ZM25.056 14.9422C25.0555 14.9422 25.055 14.9422 25.0544 14.9422H25.056Z" fill="#59003A" stroke="#59003A"/>
</svg>
