<svg width="44" height="43" viewBox="0 0 44 43" fill="none" xmlns="http://www.w3.org/2000/svg">
<path d="M42.7139 21.4243C42.7139 32.7351 33.323 41.9243 21.7139 41.9243C10.1047 41.9243 0.713867 32.7351 0.713867 21.4243C0.713867 10.1135 10.1047 0.924316 21.7139 0.924316C33.323 0.924316 42.7139 10.1135 42.7139 21.4243Z" stroke="#59003A"/>
<path d="M20.7139 26.9243H22.239C22.2387 26.6198 22.2375 26.3141 22.2363 26.0074C22.2328 25.0855 22.2292 24.1557 22.2502 23.2297L22.2502 23.229C22.2608 22.7863 22.3739 22.3354 22.5298 21.9528L20.7139 26.9243ZM20.7139 26.9243V19.9502H22.2246V20.4749V21.5625L23.0502 20.8544C23.1537 20.7656 23.271 20.6514 23.3716 20.5536C23.4223 20.5042 23.4688 20.4591 23.507 20.4234C23.6461 20.2936 23.7534 20.211 23.8513 20.1646L23.8517 20.1644C24.6831 19.7692 25.5633 19.84 26.0669 20.5206L26.067 20.5207C26.4413 21.0262 26.6421 21.6406 26.662 22.304C26.662 22.304 26.662 22.304 26.662 22.304L27.1617 22.289M20.7139 26.9243L26.7112 26.9188H27.1864V27.3188H27.2138L27.1864 27.319V27.4188M27.1617 22.289C27.1977 23.4912 27.2022 24.6951 27.2067 25.8988C27.2084 26.3722 27.2102 26.8455 27.2139 27.3188C27.2139 27.3379 27.2073 27.3566 27.1993 27.3794C27.1952 27.3913 27.1906 27.4042 27.1864 27.4188M27.1617 22.289C27.1391 21.5332 26.9093 20.818 26.4689 20.2232C25.7685 19.2766 24.5892 19.2602 23.637 19.7128L27.1617 22.289ZM27.1864 27.4188L26.848 27.3216L25.1551 27.4188H27.1864ZM24.0709 21.1408C23.4811 21.0215 22.7996 21.2902 22.5298 21.9526L24.0709 21.1408Z" fill="#59003A" stroke="#59003A"/>
<path d="M16.7139 19.9243H18.7139V26.9243H16.7139V19.9243Z" fill="#59003A" stroke="#59003A"/>
<path d="M17.7181 17.9243C17.1622 17.9254 16.7144 17.4779 16.7139 16.9291V16.9291C16.7133 16.3739 17.1602 15.9259 17.7125 15.9243C18.2646 15.9227 18.7117 16.366 18.7139 16.9234C18.716 17.4786 18.2738 17.9232 17.7181 17.9243Z" fill="#59003A" stroke="#59003A"/>
</svg>
