<svg width="97" height="97" viewBox="0 0 97 97" fill="none" xmlns="http://www.w3.org/2000/svg">
<circle cx="48.5" cy="48.5" r="48.5" fill="#59003A" fill-opacity="0.2"/>
<path d="M49.132 61.34C47.4093 61.34 45.8567 61.034 44.474 60.422C43.114 59.7873 42.0033 58.8693 41.142 57.668C40.3033 56.444 39.816 54.9593 39.68 53.214H44.882C45.0633 54.6193 45.494 55.662 46.174 56.342C46.854 56.9993 47.772 57.328 48.928 57.328C49.9253 57.328 50.7527 57.0333 51.41 56.444C52.09 55.8547 52.43 54.9933 52.43 53.86C52.43 52.772 52.1013 51.8993 51.444 51.242C50.8093 50.562 49.7213 50.222 48.18 50.222H46.004V46.278H48.078C49.4153 46.278 50.3787 45.9833 50.968 45.394C51.5573 44.8047 51.852 44.0567 51.852 43.15C51.852 42.2887 51.6253 41.586 51.172 41.042C50.7187 40.4753 49.948 40.192 48.86 40.192C47.9307 40.192 47.126 40.4753 46.446 41.042C45.766 41.6087 45.3467 42.47 45.188 43.626H39.952C40.156 42.0847 40.6433 40.7587 41.414 39.648C42.1847 38.5373 43.216 37.6873 44.508 37.098C45.8 36.486 47.3073 36.18 49.03 36.18C50.7527 36.18 52.226 36.452 53.45 36.996C54.6967 37.5173 55.66 38.2653 56.34 39.24C57.02 40.2147 57.36 41.382 57.36 42.742C57.36 43.8753 57.0993 44.8727 56.578 45.734C56.0567 46.5953 55.3993 47.264 54.606 47.74C53.8353 48.216 53.0533 48.454 52.26 48.454L52.226 47.74C53.4273 47.74 54.4587 48.0347 55.32 48.624C56.1813 49.1907 56.8387 49.9613 57.292 50.936C57.7453 51.888 57.972 52.9533 57.972 54.132C57.972 55.6053 57.5867 56.886 56.816 57.974C56.0453 59.062 54.9913 59.9007 53.654 60.49C52.3167 61.0567 50.8093 61.34 49.132 61.34Z" fill="#59003A"/>
</svg>
